<?xml version="1.0" encoding="UTF-8" standalone="no"?>
<!DOCTYPE svg PUBLIC "-//W3C//DTD SVG 1.1//EN" "http://www.w3.org/Graphics/SVG/1.1/DTD/svg11.dtd">
<svg width="100%" height="100%" viewBox="0 0 481 51" version="1.1" xmlns="http://www.w3.org/2000/svg" xmlns:xlink="http://www.w3.org/1999/xlink" xml:space="preserve" xmlns:serif="http://www.serif.com/" style="fill-rule:evenodd;clip-rule:evenodd;stroke-linejoin:round;stroke-miterlimit:2;">
    <g transform="matrix(1,0,0,1,226,-6373)">
        <g transform="matrix(1,0,0,1,-638.525,690.98)">
            <path d="M429.729,5728.86C430.961,5728.61 436.712,5727.48 442.427,5726.58C477.414,5721.04 561.95,5710.23 569.882,5709.51C590.612,5707.63 614.279,5702.74 635.127,5705.34C647.272,5706.86 660.504,5708.95 672.834,5707.41C692.825,5704.91 721.738,5699.16 741.582,5703.13C751.67,5705.15 772.868,5703.72 782.172,5706.82C782.346,5706.88 784.552,5707.44 788.437,5707.28C802.476,5706.7 870.647,5702.93 881.147,5702.93C886.904,5702.93 891.578,5698.25 891.578,5692.5C891.578,5686.74 886.904,5682.7 881.147,5682.7C870.549,5682.7 540.39,5677.95 463.37,5682.7C445.826,5683.78 419.649,5710.71 419.025,5711.23C414.617,5714.94 414.044,5721.52 417.748,5725.93C420.747,5729.5 425.637,5730.56 429.729,5728.86Z" style="fill:rgb(105,55,30);"/>
        </g>
    </g>
</svg>
