<?xml version="1.0" encoding="UTF-8" standalone="no"?><!DOCTYPE svg PUBLIC "-//W3C//DTD SVG 1.1//EN" "http://www.w3.org/Graphics/SVG/1.1/DTD/svg11.dtd"><svg width="100%" height="100%" viewBox="0 0 481 51" version="1.1" xmlns="http://www.w3.org/2000/svg" xmlns:xlink="http://www.w3.org/1999/xlink" xml:space="preserve" xmlns:serif="http://www.serif.com/" style="fill-rule:evenodd;clip-rule:evenodd;stroke-linejoin:round;stroke-miterlimit:2;"><path d="M17.204,46.84c1.232,-0.246 6.983,-1.377 12.698,-2.282c34.988,-5.542 119.523,-16.345 127.456,-17.066c20.73,-1.884 44.396,-6.775 65.244,-4.169c12.145,1.518 25.377,3.607 37.707,2.066c19.991,-2.499 48.904,-8.244 68.749,-4.275c10.087,2.017 31.285,0.589 40.589,3.691c0.174,0.058 2.38,0.62 6.265,0.459c14.039,-0.583 82.21,-4.357 92.71,-4.357c5.757,0 10.431,-4.674 10.431,-10.431c0,-5.757 -4.674,-10.432 -10.431,-10.432c-10.598,0 -79.406,3.787 -93.575,4.375l-0.789,0.027c-10.653,-2.607 -31.055,-1.779 -41.109,-3.79c-21.762,-4.353 -53.506,1.291 -75.428,4.031c-10.643,1.33 -22.048,-0.756 -32.531,-2.066c-22.272,-2.784 -47.576,2.081 -69.721,4.094c-9.039,0.822 -116.28,14.565 -139.787,19.11c-5.523,1.068 -8.558,2.866 -9.182,3.39c-4.408,3.703 -4.98,10.289 -1.277,14.697c2.999,3.57 7.889,4.624 11.981,2.928Z" style="fill:#69371e;"/></svg>