<?xml version="1.0" encoding="UTF-8" standalone="no"?><!DOCTYPE svg PUBLIC "-//W3C//DTD SVG 1.1//EN" "http://www.w3.org/Graphics/SVG/1.1/DTD/svg11.dtd"><svg width="100%" height="100%" viewBox="0 0 2005 213" version="1.1" xmlns="http://www.w3.org/2000/svg" xmlns:xlink="http://www.w3.org/1999/xlink" xml:space="preserve" xmlns:serif="http://www.serif.com/" style="fill-rule:evenodd;clip-rule:evenodd;stroke-linejoin:round;stroke-miterlimit:2;"><path d="M71.684,195.166c5.132,-1.023 29.096,-5.736 52.907,-9.508c145.782,-23.091 498.014,-68.102 531.066,-71.107c86.374,-7.852 184.984,-28.23 271.853,-17.372c50.601,6.325 105.735,15.03 157.11,8.608c83.296,-10.412 203.767,-34.351 286.453,-17.813c42.031,8.406 130.356,2.457 169.124,15.38c0.726,0.242 9.916,2.585 26.102,1.913c58.496,-2.428 342.544,-18.153 386.293,-18.153c23.988,0 43.464,-19.476 43.464,-43.465c0,-23.988 -19.476,-43.464 -43.464,-43.464c-44.157,-0 -330.857,15.777 -389.898,18.227l-3.284,0.115c-44.391,-10.866 -129.398,-7.416 -171.288,-15.794c-90.674,-18.135 -222.942,5.378 -314.284,16.796c-44.347,5.543 -91.867,-3.148 -135.546,-8.608c-92.799,-11.6 -198.234,8.67 -290.506,17.058c-37.663,3.424 -484.499,60.686 -582.446,79.624c-23.013,4.449 -35.658,11.944 -38.256,14.127c-18.367,15.43 -20.752,42.87 -5.322,61.237c12.497,14.876 32.872,19.268 49.922,12.199Z" style="fill:#69371e;"/></svg>